<?xml version="1.0" encoding="UTF-8"?>
<!DOCTYPE svg PUBLIC "-//W3C//DTD SVG 1.1//EN" "http://www.w3.org/Graphics/SVG/1.1/DTD/svg11.dtd">
<svg xmlns="http://www.w3.org/2000/svg" version="1.1" width="2048px" height="2048px" style="shape-rendering:geometricPrecision; text-rendering:geometricPrecision; image-rendering:optimizeQuality; fill-rule:evenodd; clip-rule:evenodd" xmlns:xlink="http://www.w3.org/1999/xlink">
<g><path style="opacity:0.973" fill="#fefffe" d="M 257.5,580.5 C 268.222,580.125 278.889,580.625 289.5,582C 313.873,588.124 337.873,595.458 361.5,604C 379.53,608.879 397.863,610.879 416.5,610C 420.211,609.156 423.877,608.156 427.5,607C 438.925,599.572 449.092,590.739 458,580.5C 465.247,583.871 472.081,587.871 478.5,592.5C 469.518,602.65 460.351,612.65 451,622.5C 432.685,641.15 412.852,657.984 391.5,673C 354.483,695.114 315.149,700.447 273.5,689C 260.08,684.122 246.414,680.122 232.5,677C 203.779,670.951 179.612,678.785 160,700.5C 155.743,706.008 152.243,712.008 149.5,718.5C 148.833,718.833 148.167,719.167 147.5,719.5C 142.505,717.336 137.505,715.17 132.5,713C 130.387,712.128 129.054,710.628 128.5,708.5C 142.039,663.539 167.706,627.373 205.5,600C 221.629,590.016 238.962,583.516 257.5,580.5 Z"/></g>
<g><path style="opacity:0.979" fill="#fefffe" d="M 1372.5,581.5 C 1416.4,579.373 1451.57,595.706 1478,630.5C 1490.17,649.513 1502.84,668.179 1516,686.5C 1596.33,821.833 1676.67,957.167 1757,1092.5C 1760.65,1050.28 1762.65,1007.95 1763,965.5C 1763.86,896.155 1763.36,826.822 1761.5,757.5C 1730.06,756.077 1701.4,746.577 1675.5,729C 1669,723.833 1662.5,718.667 1656,713.5C 1642.62,727.548 1629.28,741.548 1616,755.5C 1610.54,751.046 1605.38,746.213 1600.5,741C 1643.14,691.692 1685.8,642.359 1728.5,593C 1735.83,592.333 1743.17,592.333 1750.5,593C 1768.18,615.684 1791.18,630.017 1819.5,636C 1848.18,639.24 1870.01,628.74 1885,604.5C 1888.49,597.544 1890.65,590.211 1891.5,582.5C 1896.51,582.334 1901.51,582.501 1906.5,583C 1912.88,594.653 1916.71,607.153 1918,620.5C 1920.55,678.916 1895.38,720.416 1842.5,745C 1824.78,751.878 1806.44,756.212 1787.5,758C 1788.5,959.097 1788.83,1160.26 1788.5,1361.5C 1774.83,1361.67 1761.16,1361.5 1747.5,1361C 1746.79,1359.75 1745.96,1358.58 1745,1357.5C 1629.8,1161.28 1514.13,965.28 1398,769.5C 1397.33,903.833 1397.33,1038.17 1398,1172.5C 1445.74,1182.12 1487.24,1203.45 1522.5,1236.5C 1534.18,1223.79 1545.84,1211.13 1557.5,1198.5C 1562.83,1203.17 1567.83,1208.17 1572.5,1213.5C 1528.63,1263.25 1484.29,1312.58 1439.5,1361.5C 1422.63,1344.13 1402.96,1330.96 1380.5,1322C 1367.25,1318.61 1353.92,1317.61 1340.5,1319C 1312.1,1327.3 1299.93,1346.13 1304,1375.5C 1307.77,1392.28 1317.27,1404.78 1332.5,1413C 1343.75,1418.61 1355.59,1420.78 1368,1419.5C 1369.28,1419.61 1370.11,1420.28 1370.5,1421.5C 1368.89,1428.04 1367.23,1434.54 1365.5,1441C 1310.25,1447.6 1266.08,1428.77 1233,1384.5C 1203.89,1336.93 1203.22,1288.93 1231,1240.5C 1263.74,1193.88 1308.91,1170.54 1366.5,1170.5C 1366.5,1114.83 1366.5,1059.17 1366.5,1003.5C 1355.06,1003.03 1343.72,1003.87 1332.5,1006C 1311.48,1013.88 1304.31,1028.38 1311,1049.5C 1313.69,1054.01 1316.86,1058.01 1320.5,1061.5C 1318.96,1066.13 1317.62,1070.79 1316.5,1075.5C 1298.15,1071.91 1282.65,1063.24 1270,1049.5C 1240.91,1015.87 1234.58,978.199 1251,936.5C 1274.87,889.3 1313.37,864.966 1366.5,863.5C 1366.67,816.832 1366.5,770.165 1366,723.5C 1358.34,714.499 1349.51,706.999 1339.5,701C 1322.04,693.694 1306.87,696.86 1294,710.5C 1286.24,723.299 1280.74,736.966 1277.5,751.5C 1269.91,750.811 1262.74,748.811 1256,745.5C 1248.29,697.975 1260.29,656.308 1292,620.5C 1314.52,598.488 1341.36,585.488 1372.5,581.5 Z"/></g>
<g><path style="opacity:0.981" fill="#fefffe" d="M 585.5,592.5 C 588.861,593.684 591.861,595.517 594.5,598C 639.354,635.688 684.354,673.188 729.5,710.5C 747.333,700.085 764.999,689.418 782.5,678.5C 783.333,653.507 783.833,628.507 784,603.5C 794.084,602.514 804.251,602.181 814.5,602.5C 814.333,621.503 814.5,640.503 815,659.5C 851.749,637.086 888.749,615.086 926,593.5C 969.503,631.339 1012.67,669.506 1055.5,708C 1056.17,708.667 1056.83,708.667 1057.5,708C 1071.17,696.833 1084.83,685.667 1098.5,674.5C 1104.12,681.289 1109.95,687.956 1116,694.5C 1117.4,696.146 1117.57,697.813 1116.5,699.5C 1099.21,712.787 1082.21,726.454 1065.5,740.5C 1064.33,899.832 1064.17,1059.17 1065,1218.5C 1079.63,1230.79 1093.96,1243.46 1108,1256.5C 1127.24,1243.13 1146.74,1230.13 1166.5,1217.5C 1171.12,1222.63 1175.96,1227.63 1181,1232.5C 1181.67,1233.17 1181.67,1233.83 1181,1234.5C 1128.66,1276.85 1076.32,1319.18 1024,1361.5C 984.131,1329.55 944.798,1296.89 906,1263.5C 894.825,1271.75 883.492,1279.75 872,1287.5C 867.814,1282.97 863.981,1278.14 860.5,1273C 880.246,1259.04 900.079,1245.21 920,1231.5C 920.667,1177.17 920.667,1122.83 920,1068.5C 895.702,1049.31 868.535,1043.81 838.5,1052C 830.554,1055.31 822.888,1059.14 815.5,1063.5C 814.333,1121.83 814.167,1180.16 815,1238.5C 825.918,1231.62 836.752,1224.62 847.5,1217.5C 852.656,1222.82 857.656,1228.32 862.5,1234C 804.738,1276.63 746.905,1319.13 689,1361.5C 649.653,1328.82 610.32,1296.15 571,1263.5C 560.269,1271.9 549.269,1279.9 538,1287.5C 536.395,1286.9 535.062,1285.9 534,1284.5C 532.056,1280.89 529.723,1277.56 527,1274.5C 526.333,1273.83 526.333,1273.17 527,1272.5C 547.724,1257.44 568.724,1242.78 590,1228.5C 590.667,1175.5 590.667,1122.5 590,1069.5C 565.305,1049.36 537.471,1043.53 506.5,1052C 498.641,1055.18 491.141,1059.01 484,1063.5C 483.667,1117.5 483.333,1171.5 483,1225.5C 481.493,1249.83 472.827,1271.17 457,1289.5C 428.358,1321.41 392.858,1341.24 350.5,1349C 329.913,1351.76 309.246,1353.76 288.5,1355C 269.849,1356.5 253.849,1363.66 240.5,1376.5C 230.806,1389.53 229.972,1403.19 238,1417.5C 247.267,1429.39 259.434,1436.56 274.5,1439C 278.486,1439.5 282.486,1439.67 286.5,1439.5C 286.5,1448.17 286.5,1456.83 286.5,1465.5C 222.301,1467.81 182.135,1437.81 166,1375.5C 157.654,1338.23 164.321,1303.9 186,1272.5C 207.02,1247.4 233.853,1232.23 266.5,1227C 295.787,1223.78 325.12,1221.11 354.5,1219C 405.971,1212.53 437.471,1184.03 449,1133.5C 450.328,1125.54 451.328,1117.54 452,1109.5C 452.667,974.833 452.667,840.167 452,705.5C 429.506,723.187 412.839,745.187 402,771.5C 397.342,785.45 394.842,799.783 394.5,814.5C 395.653,897.157 395.82,979.824 395,1062.5C 394.864,1097.93 381.364,1127.1 354.5,1150C 314.786,1179.41 270.119,1195.91 220.5,1199.5C 218.68,1199.35 217.18,1198.68 216,1197.5C 214.184,1191.22 212.684,1184.89 211.5,1178.5C 233.418,1174.3 247.918,1161.63 255,1140.5C 258.346,1127.39 260.013,1114.05 260,1100.5C 260.5,1069.84 260.667,1039.17 260.5,1008.5C 242.83,1008.33 225.164,1008.5 207.5,1009C 190.986,1012.19 179.153,1021.35 172,1036.5C 168.58,1046.72 167.413,1057.05 168.5,1067.5C 161.825,1067.67 155.158,1067.5 148.5,1067C 130.88,1036.07 127.38,1003.57 138,969.5C 146.576,940.925 164.41,920.425 191.5,908C 213.727,897.794 237.06,891.961 261.5,890.5C 264.127,842.752 282.794,802.585 317.5,770C 337.76,752.54 359.093,736.54 381.5,722C 449.734,679.059 517.734,635.892 585.5,592.5 Z M 814.5,701.5 C 850.061,728.882 885.228,756.882 920,785.5C 920.667,826.167 920.667,866.833 920,907.5C 893.137,928.669 863.637,933.169 831.5,921C 825.592,918.465 820.092,915.298 815,911.5C 814.5,841.501 814.333,771.501 814.5,701.5 Z M 483.5,707.5 C 518.815,731.808 554.149,756.141 589.5,780.5C 590.667,822.496 590.833,864.496 590,906.5C 557.75,931.311 523.583,934.144 487.5,915C 486.333,913.833 485.167,912.667 484,911.5C 483.5,843.501 483.333,775.501 483.5,707.5 Z M 782.5,708.5 C 783.666,889.666 783.833,1071 783,1252.5C 763.667,1237.83 744.333,1223.17 725,1208.5C 724.333,1053.83 724.333,899.167 725,744.5C 744.147,732.35 763.313,720.35 782.5,708.5 Z M 589.5,938.5 C 590.664,971.331 590.831,1004.33 590,1037.5C 565.761,1018.38 538.595,1012.55 508.5,1020C 500.104,1023.03 492.104,1026.86 484.5,1031.5C 483.333,1002.17 483.167,972.839 484,943.5C 514.744,963.504 546.244,964.671 578.5,947C 582.235,944.147 585.902,941.313 589.5,938.5 Z M 919.5,939.5 C 920.664,971.664 920.831,1004 920,1036.5C 891.432,1014.99 860.598,1011.16 827.5,1025C 822.919,1026.87 818.752,1029.37 815,1032.5C 814.167,1002.83 814.333,973.161 815.5,943.5C 846.346,963.465 878.012,964.632 910.5,947C 913.69,944.636 916.69,942.136 919.5,939.5 Z"/></g>
</svg>
